<svg xmlns="http://www.w3.org/2000/svg" x="0px" y="0px" width="100" height="100" viewBox="0,0,256,256">
<g fill="#8f8148" fill-rule="nonzero" stroke="none" stroke-width="1" stroke-linecap="butt" stroke-linejoin="miter" stroke-miterlimit="10" stroke-dasharray="" stroke-dashoffset="0" font-family="none" font-weight="none" font-size="none" text-anchor="none" style="mix-blend-mode: normal"><g transform="scale(5.12,5.12)"><path d="M13,3v19.3125l0.1875,0.28125l4.59375,6.40625l0.125,0.21875l0.84375,1.3125l4.125,6.46875h-2.25l-0.28125,0.25l-6.34375,5.5625v-5.8125h-3c-2.27734,0 -4,-1.72266 -4,-4v-21c0,-2.27734 1.72266,-4 4,-4h1v-2h-1c-3.32422,0 -6,2.67578 -6,6v21c0,3.32422 2.67578,6 6,6h1v8.21875l1.65625,-1.46875l7.71875,-6.75h18.625c3.32422,0 6,-2.67578 6,-6v-21c0,-3.32422 -2.67578,-6 -6,-6h-15v-3zM15,5h8v14.5l-3.625,-1.4375l-0.375,-0.125l-0.375,0.125l-3.625,1.4375zM25,8h15c2.27734,0 4,1.72266 4,4v17h-23.75l4.5625,-6.40625l0.1875,-0.28125zM19,20.09375l3.96875,1.59375l-2.34375,3.3125h-3.25l-2.34375,-3.3125zM21.40625,31h22.59375v2c0,2.27734 -1.72266,4 -4,4h-14.78125z"></path></g></g>
</svg>