<svg xmlns="http://www.w3.org/2000/svg" x="0px" y="0px" width="100" height="100" viewBox="0,0,256,256">
<g fill="#8f8148" fill-rule="nonzero" stroke="none" stroke-width="1" stroke-linecap="butt" stroke-linejoin="miter" stroke-miterlimit="10" stroke-dasharray="" stroke-dashoffset="0" font-family="none" font-weight="none" font-size="none" text-anchor="none" style="mix-blend-mode: normal"><g transform="scale(4,4)"><path d="M32,3c-15.99,0 -29,13.01 -29,29c0,15.99 13.01,29 29,29c15.99,0 29,-13.01 29,-29c0,-15.99 -13.01,-29 -29,-29zM32,5c14.888,0 27,12.112 27,27c0,14.888 -12.112,27 -27,27c-14.888,0 -27,-12.112 -27,-27c0,-14.888 12.112,-27 27,-27zM32.37109,8.07031c-3.89766,-0.08236 -7.78273,0.82069 -11.24023,2.64844c-0.489,0.259 -0.67502,0.86356 -0.41602,1.35156c0.171,0.326 0.4997,0.51825 0.8457,0.53125c0.17,0.007 0.34291,-0.03023 0.50391,-0.11523c4.208,-2.224 9.1145,-2.94806 13.8125,-2.03906c0.552,0.103 1.06688,-0.24902 1.17188,-0.79102c0.106,-0.541 -0.24902,-1.06583 -0.79102,-1.17383c-1.2865,-0.249 -2.5875,-0.38466 -3.88672,-0.41211zM40.22461,9.71094c-0.38953,0.00389 -0.75852,0.23514 -0.91602,0.61914c-0.211,0.51 0.03292,1.09369 0.54492,1.30469c0.702,0.288 1.39831,0.61933 2.07031,0.98633c0.141,0.077 0.28945,0.11609 0.43945,0.12109c0.367,0.013 0.72802,-0.17653 0.91602,-0.51953c0.265,-0.485 0.08656,-1.09147 -0.39844,-1.35547c-0.734,-0.402 -1.49758,-0.76503 -2.26758,-1.08203c-0.1275,-0.05225 -0.25883,-0.07552 -0.38867,-0.07422zM14,17c-1.654,0 -3,1.346 -3,3v21c0,2.757 2.243,5 5,5h22c2.757,0 5,-2.243 5,-5v-1h0.5c6.341,0 11.5,-5.159 11.5,-11.5c0,-6.341 -5.159,-11.5 -11.5,-11.5zM14,19h29.5c5.238,0 9.5,4.262 9.5,9.5c0,5.238 -4.262,9.5 -9.5,9.5h-1.5c-0.553,0 -1,0.447 -1,1v2c0,1.654 -1.346,3 -3,3h-22c-1.654,0 -3,-1.346 -3,-3v-21c0,-0.551 0.448,-1 1,-1zM42,22c-0.553,0 -1,0.448 -1,1v11c0,0.553 0.447,1 1,1h1.5c3.584,0 6.5,-2.916 6.5,-6.5c0,-3.584 -2.916,-6.5 -6.5,-6.5zM23.5,24c-3.032,0 -5.5,2.467 -5.5,5.5c0,3.843 7.4868,10.50691 8.3418,11.25391c0.188,0.165 0.4232,0.24609 0.6582,0.24609c0.235,0 0.4702,-0.08109 0.6582,-0.24609c0.855,-0.747 8.3418,-7.41091 8.3418,-11.25391c0,-3.033 -2.468,-5.5 -5.5,-5.5c-1.291,0 -2.521,0.45634 -3.5,1.27734c-0.979,-0.821 -2.209,-1.27734 -3.5,-1.27734zM43,24h0.5c2.481,0 4.5,2.019 4.5,4.5c0,2.481 -2.019,4.5 -4.5,4.5h-0.5zM23.5,26c1.053,0 2.04375,0.48412 2.71875,1.32813c0.38,0.475 1.1815,0.475 1.5625,0c0.675,-0.844 1.66575,-1.32812 2.71875,-1.32812c1.93,0 3.5,1.57 3.5,3.5c0,2.058 -4.051,6.4642 -7,9.1582c-2.949,-2.694 -7,-7.0992 -7,-9.1582c0,-1.93 1.57,-3.5 3.5,-3.5zM22.31641,49.39844c-0.38742,-0.04289 -0.77992,0.14556 -0.98242,0.50781l-0.97656,1.74609c-0.27,0.483 -0.09823,1.09133 0.38477,1.36133c0.482,0.269 1.09133,0.09723 1.36133,-0.38477l0.97656,-1.74609c0.27,-0.483 0.09823,-1.09133 -0.38477,-1.36133c-0.12075,-0.0675 -0.24976,-0.10875 -0.37891,-0.12305zM41.73633,49.39844c-0.12914,0.0143 -0.25816,0.05555 -0.37891,0.12305c-0.483,0.27 -0.65477,0.87833 -0.38477,1.36133l0.97656,1.74609c0.269,0.482 0.87833,0.65377 1.36133,0.38477c0.483,-0.27 0.65477,-0.87833 0.38477,-1.36133l-0.97656,-1.74609c-0.2025,-0.36225 -0.595,-0.5507 -0.98242,-0.50781zM26.875,51.32227c-0.38484,0.05161 -0.72644,0.32606 -0.83594,0.72656l-0.52734,1.92969c-0.147,0.533 0.16622,1.08056 0.69922,1.22656c0.085,0.022 0.16986,0.03611 0.25586,0.03711c0.442,0.004 0.85066,-0.28833 0.97266,-0.73633l0.52734,-1.92969c0.146,-0.532 -0.16622,-1.08252 -0.69922,-1.22852c-0.131,-0.03575 -0.2643,-0.04259 -0.39258,-0.02539zM37.23828,51.37109c-0.12842,-0.01863 -0.26178,-0.01277 -0.39453,0.02148c-0.534,0.141 -0.85389,0.6857 -0.71289,1.2207l0.50781,1.93555c0.117,0.447 0.51703,0.74209 0.95703,0.74609c0.089,0 0.17567,-0.0102 0.26367,-0.0332c0.535,-0.141 0.85489,-0.68766 0.71289,-1.22266l-0.50781,-1.93359c-0.105,-0.40125 -0.44091,-0.6785 -0.82617,-0.73437zM32,52c-0.553,0 -1,0.447 -1,1v2c0,0.553 0.447,1 1,1c0.553,0 1,-0.447 1,-1v-2c0,-0.553 -0.447,-1 -1,-1z"></path></g></g>
</svg>