<svg xmlns="http://www.w3.org/2000/svg" version="1.1" xmlns:xlink="http://www.w3.org/1999/xlink" xmlns:svgjs="http://svgjs.com/svgjs" width="1000" height="1000"><rect width="1000" height="1000" rx="200" ry="200" fill="#f7f4e3"></rect><g transform="matrix(0.9502431956935617,0,0,0.9502431956935617,146.70636019434062,-0.3112593330433242)"><svg xmlns="http://www.w3.org/2000/svg" version="1.1" xmlns:xlink="http://www.w3.org/1999/xlink" xmlns:svgjs="http://svgjs.com/svgjs" width="744.09447" height="1052.362179"><svg viewBox="0 0 744.09447 1052.362179" xmlns="http://www.w3.org/2000/svg">
 <g transform="matrix(7.9541 0 0 7.9541 -14.181 21.356)">
  <path d="m80.714 21.768c-11.17-7.8314-22.339-6.4456-33.509-1.9567-6.0583 8.0832-12.088 16.235-23.236 12.229 0.08056 2.2828 0.75299 4.5657 3.4242 6.8485l-2.9351-0.73377 2.4459 2.2013-4.158-0.48918 4.4026 2.9351c0.09787 4.6701-4.1946 3.1936-7.0931 3.6688l4.158 4.6472c-1.5268 2.6647-4.2891 2.2403-7.0931 1.7121 5.0161 7.3984 9.5329 14.594-5.8701 13.697-1.2865 2.6905 0.07531 5.381 2.6905 8.0714-2.2013 1.7671-4.4026 1.0282-6.6039 0.24459 0.68639 1.724 0.97044 3.5485 4.158 4.6472l44.271 8.316 10.273 0.48918c-0.94088-7.1699 2.6433-13.774 6.8485-20.301 1.7572 4.7409 1.8902 10.023 1.7121 15.409l2.9351-7.8268 0.73377 11.006 2.2013-11.006 3.1796 10.028c-2.3754-12.688 1.479-24.163 8.316-31.307 3.9116-4.1266 2.2246-23.539-11.251-32.53z" fill="#6f4a10" fill-rule="evenodd" stroke="#000" stroke-linejoin="round" stroke-width=".4"></path>
  <path d="m64.327 25.193c3.5426 2.9559 19.026 11.344 17.399 24.015l-9.3276 13.897-21.524 19.323c24.605 11.418 1.839 27.027-6.1147 25.926-23.444 2.6948-41.886 0.00306-40.113-24.459 12.797-4.6345 20.415-20.273 28.128-35.71-5.0458-2.3935-1.4422-6.7092-1.2229-10.273l5.6255 3.6688c8.4049-6.8811 15.703-16.197 27.149-16.387z" fill="#eec789" fill-rule="evenodd" stroke="#000"></path>
  <path d="m62.37 56.177c5.7947-1.7324 5.3395 2.3683 6.5328 4.9304-2.3894-0.64946-5.0028-0.29051-6.7794-3.6978l0.24652-1.2326z" fill="#f6e1c0" fill-rule="evenodd" stroke="#000"></path>
  <path d="m55.837 48.288c-3.4543-0.28307-6.9036-0.57384-7.1492-5.67 2.5809-0.49138 5.0201 0.57514 7.2724 3.6978l-0.12326 1.9722z" fill="#f6e1c0" fill-rule="evenodd" stroke="#000"></path>
  <path transform="translate(-.49304,.49304)" d="m55.221 44.654a2.0954 1.9106 0 1 1 0 -4.4e-4l-2.0954-0.00189z" fill="#1b1103" opacity=".99628"></path>
  <path transform="translate(-.73957)" d="m68.533 57.781a1.9106 1.9722 0 1 1 0 -4.6e-4l-1.9106-0.00196z" fill="#1b1103" opacity=".99628"></path>
  <path d="m65.452 53.711c-3.6982 0.0376-6.8096 5.3565-9.8609 11.217-2.4791 3.1748-3.7413 1.786-4.9304 0.12326-1.253-1.7824-2.0787-4.3126-4.5607-3.9444 1.7529-3.8738 3.2576-3.5271 4.6839-1.8489" fill="none" stroke="#000"></path>
  <path d="m60.275 47.795c-2.0575-3.379-4.6998-6.6849-9.3678-9.7376 4.425 0.92258 7.8162 3.3957 9.6144 8.2585l-0.24652 1.4791z" fill="#0f0f0f" fill-rule="evenodd" stroke="#000"></path>
  <path d="m65.575 53.958c4.0978 1.1784 6.2491 4.087 7.3957 7.8887 0.48285-3.3358 0.43439-6.5387-5.5468-8.2585l-1.8489 0.36978z" fill="#0f0f0f" fill-rule="evenodd" stroke="#000"></path>
  <path d="m39.567 66.161c4.2094 2.0769 7.0477 5.5249 9.9842 8.8748-1.5014-5.4874-4.2278-9.2788-9.9842-8.8748z" fill="#ad2121" fill-rule="evenodd" stroke="#000"></path>
  <path d="m48.935 74.789c-2.6719-4.2305-5.3319-6.5794-10.6-8.505 2.2314 5.9732 6.1008 7.0682 10.6 8.505z" fill="#8f0e0e" fill-rule="evenodd" stroke="#000"></path>
  <path d="m29.09 56.053c-3.711 2.2018 2.6275 13.522 3.9444 20.338 1.7486 3.8173 5.3004 4.7493 8.6283 6.0398l8.8748 0.12326" fill="none" stroke="#000"></path>
 </g>
</svg></svg></g></svg>