<svg xmlns="http://www.w3.org/2000/svg" version="1.1" xmlns:xlink="http://www.w3.org/1999/xlink" xmlns:svgjs="http://svgjs.com/svgjs" width="1000" height="1000"><svg xmlns="http://www.w3.org/2000/svg" xmlns:xlink="http://www.w3.org/1999/xlink" version="1.1" width="1000" height="1000" viewBox="0 0 1000 1000" xml:space="preserve">
<desc>Created with Fabric.js 3.5.0</desc>
<defs>
</defs>
<rect x="0" y="0" width="100%" height="100%" fill="rgba(255,255,255,0)"></rect>
<g transform="matrix(1.1403 0 0 1.1403 500.0031 500.0043)" id="SvgjsG1000">
<g style="" vector-effect="non-scaling-stroke">
		<g transform="matrix(7.9541 0 0 7.9541 16.026 -89.3714)">
<path style="stroke: rgb(0,0,0); stroke-width: 0.4; stroke-dasharray: none; stroke-linecap: butt; stroke-dashoffset: 0; stroke-linejoin: round; stroke-miterlimit: 4; is-custom-font: none; font-file-url: none; fill: rgb(111,74,16); fill-rule: evenodd; opacity: 1;" transform=" translate(-50.5719, -52.2314)" d="m 80.714 21.768 c -11.17 -7.8314 -22.339 -6.4456 -33.509 -1.9567 c -6.0583 8.0832 -12.088 16.235 -23.236 12.229 c 0.08056 2.2828 0.75299 4.5657 3.4242 6.8485 l -2.9351 -0.73377 l 2.4459 2.2013 l -4.158 -0.48918 l 4.4026 2.9351 c 0.09787 4.6701 -4.1946 3.1936 -7.0931 3.6688 l 4.158 4.6472 c -1.5268 2.6647 -4.2891 2.2403 -7.0931 1.7121 c 5.0161 7.3984 9.5329 14.594 -5.8701 13.697 c -1.2865 2.6905 0.07531 5.381 2.6905 8.0714 c -2.2013 1.7671 -4.4026 1.0282 -6.6039 0.24459 c 0.68639 1.724 0.97044 3.5485 4.158 4.6472 l 44.271 8.316 l 10.273 0.48918 c -0.94088 -7.1699 2.6433 -13.774 6.8485 -20.301 c 1.7572 4.7409 1.8902 10.023 1.7121 15.409 l 2.9351 -7.8268 l 0.73377 11.006 l 2.2013 -11.006 l 3.1796 10.028 c -2.3754 -12.688 1.479 -24.163 8.316 -31.307 c 3.9116 -4.1266 2.2246 -23.539 -11.251 -32.53 z" stroke-linecap="round"></path>
</g>
		<g transform="matrix(7.9541 0 0 7.9541 -42.714 29.641)">
<path style="stroke: rgb(0,0,0); stroke-width: 1; stroke-dasharray: none; stroke-linecap: butt; stroke-dashoffset: 0; stroke-linejoin: miter; stroke-miterlimit: 4; is-custom-font: none; font-file-url: none; fill: rgb(238,199,137); fill-rule: evenodd; opacity: 1;" transform=" translate(-43.1871, -67.1938)" d="m 64.327 25.193 c 3.5426 2.9559 19.026 11.344 17.399 24.015 l -9.3276 13.897 l -21.524 19.323 c 24.605 11.418 1.839 27.027 -6.1147 25.926 c -23.444 2.6948 -41.886 0.00306 -40.113 -24.459 c 12.797 -4.6345 20.415 -20.273 28.128 -35.71 c -5.0458 -2.3935 -1.4422 -6.7092 -1.2229 -10.273 l 5.6255 3.6688 c 8.4049 -6.8811 15.703 -16.197 27.149 -16.387 z" stroke-linecap="round"></path>
</g>
		<g transform="matrix(7.9541 0 0 7.9541 134.8696 -40.0266)">
<path style="stroke: rgb(0,0,0); stroke-width: 1; stroke-dasharray: none; stroke-linecap: butt; stroke-dashoffset: 0; stroke-linejoin: miter; stroke-miterlimit: 4; is-custom-font: none; font-file-url: none; fill: rgb(246,225,192); fill-rule: evenodd; opacity: 1;" transform=" translate(-65.5131, -58.4351)" d="m 62.37 56.177 c 5.7947 -1.7324 5.3395 2.3683 6.5328 4.9304 c -2.3894 -0.64946 -5.0028 -0.29051 -6.7794 -3.6978 l 0.24652 -1.2326 z" stroke-linecap="round"></path>
</g>
		<g transform="matrix(7.9541 0 0 7.9541 29.962 -143.7422)">
<path style="stroke: rgb(0,0,0); stroke-width: 1; stroke-dasharray: none; stroke-linecap: butt; stroke-dashoffset: 0; stroke-linejoin: miter; stroke-miterlimit: 4; is-custom-font: none; font-file-url: none; fill: rgb(246,225,192); fill-rule: evenodd; opacity: 1;" transform=" translate(-52.324, -45.3958)" d="m 55.837 48.288 c -3.4543 -0.28307 -6.9036 -0.57384 -7.1492 -5.67 c 2.5809 -0.49138 5.0201 0.57514 7.2724 3.6978 l -0.12326 1.9722 z" stroke-linecap="round"></path>
</g>
		<g transform="matrix(7.9541 0 0 7.9541 32.4164 -145.7227)">
<path style="stroke: none; stroke-width: 1; stroke-dasharray: none; stroke-linecap: butt; stroke-dashoffset: 0; stroke-linejoin: miter; stroke-miterlimit: 4; is-custom-font: none; font-file-url: none; fill: rgb(27,17,3); fill-rule: nonzero; opacity: 0.9963;" transform=" translate(-53.1256, -44.6538)" d="m 55.221 44.654 a 2.0954 1.9106 0 1 1 0 -0.00044 l -2.0954 -0.00189 z" stroke-linecap="round"></path>
</g>
		<g transform="matrix(7.9541 0 0 7.9541 137.8104 -45.2311)">
<path style="stroke: none; stroke-width: 1; stroke-dasharray: none; stroke-linecap: butt; stroke-dashoffset: 0; stroke-linejoin: miter; stroke-miterlimit: 4; is-custom-font: none; font-file-url: none; fill: rgb(27,17,3); fill-rule: nonzero; opacity: 0.9963;" transform=" translate(-66.6224, -57.7808)" d="m 68.533 57.781 a 1.9106 1.9722 0 1 1 0 -0.00046 l -1.9106 -0.00196 z" stroke-linecap="round"></path>
</g>
		<g transform="matrix(7.9541 0 0 7.9541 57.4196 -25.4131)">
<path style="stroke: rgb(0,0,0); stroke-width: 1; stroke-dasharray: none; stroke-linecap: butt; stroke-dashoffset: 0; stroke-linejoin: miter; stroke-miterlimit: 4; is-custom-font: none; font-file-url: none; fill: none; fill-rule: nonzero; opacity: 1;" transform=" translate(-55.776, -60.2723)" d="m 65.452 53.711 c -3.6982 0.0376 -6.8096 5.3565 -9.8609 11.217 c -2.4791 3.1748 -3.7413 1.786 -4.9304 0.12326 c -1.253 -1.7824 -2.0787 -4.3126 -4.5607 -3.9444 c 1.7529 -3.8738 3.2576 -3.5271 4.6839 -1.8489" stroke-linecap="round"></path>
</g>
		<g transform="matrix(7.9541 0 0 7.9541 56.9297 -163.3858)">
<path style="stroke: rgb(0,0,0); stroke-width: 1; stroke-dasharray: none; stroke-linecap: butt; stroke-dashoffset: 0; stroke-linejoin: miter; stroke-miterlimit: 4; is-custom-font: none; font-file-url: none; fill: rgb(15,15,15); fill-rule: evenodd; opacity: 1;" transform=" translate(-55.7144, -42.9262)" d="m 60.275 47.795 c -2.0575 -3.379 -4.6998 -6.6849 -9.3678 -9.7376 c 4.425 0.92258 7.8162 3.3957 9.6144 8.2585 l -0.24652 1.4791 z" stroke-linecap="round"></path>
</g>
		<g transform="matrix(7.9541 0 0 7.9541 165.507 -45.7347)">
<path style="stroke: rgb(0,0,0); stroke-width: 1; stroke-dasharray: none; stroke-linecap: butt; stroke-dashoffset: 0; stroke-linejoin: miter; stroke-miterlimit: 4; is-custom-font: none; font-file-url: none; fill: rgb(15,15,15); fill-rule: evenodd; opacity: 1;" transform=" translate(-69.3649, -57.7174)" d="m 65.575 53.958 c 4.0978 1.1784 6.2491 4.087 7.3957 7.8887 c 0.48285 -3.3358 0.43439 -6.5387 -5.5468 -8.2585 l -1.8489 0.36978 z" stroke-linecap="round"></path>
</g>
		<g transform="matrix(7.9541 0 0 7.9541 -31.8007 56.6044)">
<path style="stroke: rgb(0,0,0); stroke-width: 1; stroke-dasharray: none; stroke-linecap: butt; stroke-dashoffset: 0; stroke-linejoin: miter; stroke-miterlimit: 4; is-custom-font: none; font-file-url: none; fill: rgb(173,33,33); fill-rule: evenodd; opacity: 1;" transform=" translate(-44.5591, -70.5837)" d="m 39.567 66.161 c 4.2094 2.0769 7.0477 5.5249 9.9842 8.8748 c -1.5014 -5.4874 -4.2278 -9.2788 -9.9842 -8.8748 z" stroke-linecap="round"></path>
</g>
		<g transform="matrix(7.9541 0 0 7.9541 -39.1511 56.2293)">
<path style="stroke: rgb(0,0,0); stroke-width: 1; stroke-dasharray: none; stroke-linecap: butt; stroke-dashoffset: 0; stroke-linejoin: miter; stroke-miterlimit: 4; is-custom-font: none; font-file-url: none; fill: rgb(143,14,14); fill-rule: evenodd; opacity: 1;" transform=" translate(-43.635, -70.5365)" d="m 48.935 74.789 c -2.6719 -4.2305 -5.3319 -6.5794 -10.6 -8.505 c 2.2314 5.9732 6.1008 7.0682 10.6 8.505 z" stroke-linecap="round"></path>
</g>
		<g transform="matrix(7.9541 0 0 7.9541 -74.1216 46.4221)">
<path style="stroke: rgb(0,0,0); stroke-width: 1; stroke-dasharray: none; stroke-linecap: butt; stroke-dashoffset: 0; stroke-linejoin: miter; stroke-miterlimit: 4; is-custom-font: none; font-file-url: none; fill: none; fill-rule: nonzero; opacity: 1;" transform=" translate(-39.2385, -69.3035)" d="m 29.09 56.053 c -3.711 2.2018 2.6275 13.522 3.9444 20.338 c 1.7486 3.8173 5.3004 4.7493 8.6283 6.0398 l 8.8748 0.12326" stroke-linecap="round"></path>
</g>
</g>
</g>
</svg><style>@media (prefers-color-scheme: light) { :root { filter: none; } }
@media (prefers-color-scheme: dark) { :root { filter: none; } }
</style></svg>